<?xml version="1.0" encoding="UTF-8"?>
<!DOCTYPE svg PUBLIC "-//W3C//DTD SVG 1.1//EN" "http://www.w3.org/Graphics/SVG/1.1/DTD/svg11.dtd">
<svg xmlns="http://www.w3.org/2000/svg" version="1.1" width="515px" height="291px" style="shape-rendering:geometricPrecision; text-rendering:geometricPrecision; image-rendering:optimizeQuality; fill-rule:evenodd; clip-rule:evenodd" xmlns:xlink="http://www.w3.org/1999/xlink">
<g><path style="opacity:0.004" fill="#fefffe" d="M 204.5,226.5 C 207.2,221.619 210.533,217.119 214.5,213C 216.238,210.357 217.572,207.523 218.5,204.5C 230.237,187.434 235.904,168.267 235.5,147C 235.981,127.396 230.981,109.563 220.5,93.5C 220.727,91.0672 219.727,89.4006 217.5,88.5C 215.969,85.1008 214.135,81.7675 212,78.5C 211.329,77.7476 210.496,77.4142 209.5,77.5C 208.527,74.865 206.86,72.865 204.5,71.5C 204.19,69.8564 203.19,68.8564 201.5,68.5C 199.431,65.4275 196.764,63.0941 193.5,61.5C 192.415,59.4131 190.749,58.0798 188.5,57.5C 188.027,56.0937 187.027,55.427 185.5,55.5C 174.977,46.9196 162.977,41.0863 149.5,38C 115.166,30.5006 83.833,37.1673 55.5,58C 53.9586,59.3712 52.6253,60.8712 51.5,62.5C 50.8333,62.5 50.5,62.8333 50.5,63.5C 45.5,66.5 41.5,70.5 38.5,75.5C 37.8333,75.5 37.5,75.8333 37.5,76.5C 15.3591,101.911 6.85908,131.577 12,165.5C 15.153,183.459 22.3196,199.459 33.5,213.5C 34.1237,215.754 35.457,217.421 37.5,218.5C 38.5256,221.372 40.1923,223.872 42.5,226C 47.7394,230.089 53.0727,233.923 58.5,237.5C 63.0437,241.526 68.0437,245.026 73.5,248C 109.6,264.379 144.933,263.046 179.5,244C 182.491,242.035 185.157,239.868 187.5,237.5C 191.6,234.734 195.933,232.4 200.5,230.5C 197.715,234.116 194.381,237.282 190.5,240C 154.51,263.865 116.177,267.865 75.5,252C 19.9273,221.345 -0.906017,174.845 13,112.5C 27.6476,73.515 54.8143,48.015 94.5,36C 145.018,26.0002 186.018,41.1669 217.5,81.5C 245.909,126.459 245.409,171.126 216,215.5C 212.936,220.066 209.102,223.733 204.5,226.5 Z M 185.5,55.5 C 148.997,33.4167 111.33,31.25 72.5,49C 65.3305,53.3555 58.3305,57.8555 51.5,62.5C 52.6253,60.8712 53.9586,59.3712 55.5,58C 83.833,37.1673 115.166,30.5006 149.5,38C 162.977,41.0863 174.977,46.9196 185.5,55.5 Z M 185.5,55.5 C 187.027,55.427 188.027,56.0937 188.5,57.5C 186.973,57.573 185.973,56.9063 185.5,55.5 Z M 188.5,57.5 C 190.749,58.0798 192.415,59.4131 193.5,61.5C 191.251,60.9202 189.585,59.5869 188.5,57.5 Z M 193.5,61.5 C 196.764,63.0941 199.431,65.4275 201.5,68.5C 198.236,66.9059 195.569,64.5725 193.5,61.5 Z M 50.5,63.5 C 46.8333,67.8333 42.8333,71.8333 38.5,75.5C 41.5,70.5 45.5,66.5 50.5,63.5 Z M 201.5,68.5 C 203.19,68.8564 204.19,69.8564 204.5,71.5C 202.5,71.5 201.5,70.5 201.5,68.5 Z M 204.5,71.5 C 206.86,72.865 208.527,74.865 209.5,77.5C 207.086,76.0892 205.419,74.0892 204.5,71.5 Z M 37.5,76.5 C 9.67777,113.754 5.17777,153.754 24,196.5C 27.6978,201.898 30.8645,207.565 33.5,213.5C 22.3196,199.459 15.153,183.459 12,165.5C 6.85908,131.577 15.3591,101.911 37.5,76.5 Z M 209.5,77.5 C 210.496,77.4142 211.329,77.7476 212,78.5C 214.135,81.7675 215.969,85.1008 217.5,88.5C 214.591,85.019 211.925,81.3523 209.5,77.5 Z M 217.5,88.5 C 219.727,89.4006 220.727,91.0672 220.5,93.5C 218.75,92.3406 217.75,90.674 217.5,88.5 Z M 220.5,93.5 C 230.981,109.563 235.981,127.396 235.5,147C 235.904,168.267 230.237,187.434 218.5,204.5C 237.703,167.828 238.37,130.828 220.5,93.5 Z M 33.5,213.5 C 35.5311,214.539 36.8645,216.205 37.5,218.5C 35.457,217.421 34.1237,215.754 33.5,213.5 Z M 58.5,237.5 C 101.473,264.164 144.473,264.164 187.5,237.5C 185.157,239.868 182.491,242.035 179.5,244C 144.933,263.046 109.6,264.379 73.5,248C 68.0437,245.026 63.0437,241.526 58.5,237.5 Z"/></g>
<g><path style="opacity:0.004" fill="#fefffe" d="M 303.5,224.5 C 302.325,224.719 301.325,224.386 300.5,223.5C 268.867,184.094 263.367,141.094 284,94.5C 316.178,41.8749 362.344,23.0416 422.5,38C 468.076,55.9042 494.243,89.0708 501,137.5C 502.405,184.333 483.572,220.499 444.5,246C 410.624,264.234 375.624,266.234 339.5,252C 328.702,246.536 318.702,239.869 309.5,232C 306.882,229.894 304.882,227.394 303.5,224.5 Z M 452.5,58.5 C 412.276,31.8548 370.942,30.0214 328.5,53C 323.602,56.7451 318.602,60.2451 313.5,63.5C 323.07,54.3659 334.07,47.1993 346.5,42C 379.371,30.6279 411.371,33.2946 442.5,50C 446.534,52.1584 449.868,54.9918 452.5,58.5 Z M 452.5,58.5 C 454.027,58.427 455.027,59.0937 455.5,60.5C 453.973,60.573 452.973,59.9063 452.5,58.5 Z M 456.5,61.5 C 459.764,63.0941 462.431,65.4275 464.5,68.5C 461.236,66.9059 458.569,64.5725 456.5,61.5 Z M 313.5,63.5 C 313.167,64.5 312.5,65.1667 311.5,65.5C 311.5,64.1667 312.167,63.5 313.5,63.5 Z M 311.5,65.5 C 311.167,66.5 310.5,67.1667 309.5,67.5C 309.5,66.1667 310.167,65.5 311.5,65.5 Z M 309.5,67.5 C 308.5,69.1667 307.167,70.5 305.5,71.5C 305.833,69.1667 307.167,67.8333 309.5,67.5 Z M 464.5,68.5 C 467.903,70.8998 470.57,73.8998 472.5,77.5C 469.097,75.1002 466.43,72.1002 464.5,68.5 Z M 305.5,71.5 C 305.167,72.5 304.5,73.1667 303.5,73.5C 303.5,72.1667 304.167,71.5 305.5,71.5 Z M 303.5,73.5 C 297.908,81.0295 292.574,88.6962 287.5,96.5C 290.625,87.2329 295.959,79.5662 303.5,73.5 Z M 472.5,77.5 C 475.45,79.6205 477.95,82.2872 480,85.5C 502.203,121.956 504.203,159.623 486,198.5C 483.058,203.406 479.891,208.072 476.5,212.5C 482.693,202.108 487.86,191.108 492,179.5C 501.833,142.175 495.333,108.175 472.5,77.5 Z M 287.5,96.5 C 273.596,128.527 272.93,160.86 285.5,193.5C 279.757,183.77 276.257,173.103 275,161.5C 272.38,140.559 275.38,120.559 284,101.5C 284.902,99.5692 286.069,97.9025 287.5,96.5 Z M 285.5,193.5 C 289.416,199.662 293.083,205.995 296.5,212.5C 291.168,207.214 287.501,200.881 285.5,193.5 Z M 296.5,212.5 C 302.75,219.088 309.083,225.754 315.5,232.5C 313.742,232.123 312.075,231.456 310.5,230.5C 308.441,228.103 306.108,226.103 303.5,224.5C 300.791,220.692 298.458,216.692 296.5,212.5 Z M 475.5,213.5 C 473.558,218.441 470.225,222.108 465.5,224.5C 468.912,220.762 472.245,217.095 475.5,213.5 Z M 465.5,224.5 C 465.5,225.833 464.833,226.5 463.5,226.5C 463.833,225.5 464.5,224.833 465.5,224.5 Z M 459.5,230.5 C 458.415,232.587 456.749,233.92 454.5,234.5C 455.585,232.413 457.251,231.08 459.5,230.5 Z M 315.5,232.5 C 351.147,259.29 389.814,264.457 431.5,248C 439.051,244.063 446.384,239.896 453.5,235.5C 452.184,237.317 450.684,238.983 449,240.5C 407.379,265.829 365.713,265.829 324,240.5C 321.031,237.94 318.197,235.274 315.5,232.5 Z"/></g>
<g><path style="opacity:1" fill="#ffa824" d="M 185.5,55.5 C 185.973,56.9063 186.973,57.573 188.5,57.5C 189.585,59.5869 191.251,60.9202 193.5,61.5C 195.569,64.5725 198.236,66.9059 201.5,68.5C 201.5,70.5 202.5,71.5 204.5,71.5C 205.419,74.0892 207.086,76.0892 209.5,77.5C 211.925,81.3523 214.591,85.019 217.5,88.5C 217.75,90.674 218.75,92.3406 220.5,93.5C 238.37,130.828 237.703,167.828 218.5,204.5C 209.915,217.087 199.581,228.087 187.5,237.5C 144.473,264.164 101.473,264.164 58.5,237.5C 51.5258,231.195 44.5258,224.862 37.5,218.5C 36.8645,216.205 35.5311,214.539 33.5,213.5C 30.8645,207.565 27.6978,201.898 24,196.5C 5.17777,153.754 9.67777,113.754 37.5,76.5C 38.1667,76.5 38.5,76.1667 38.5,75.5C 42.8333,71.8333 46.8333,67.8333 50.5,63.5C 51.1667,63.5 51.5,63.1667 51.5,62.5C 58.3305,57.8555 65.3305,53.3555 72.5,49C 111.33,31.25 148.997,33.4167 185.5,55.5 Z"/></g>
<g><path style="opacity:1" fill="#92d041" d="M 452.5,58.5 C 452.973,59.9063 453.973,60.573 455.5,60.5C 455.5,61.1667 455.833,61.5 456.5,61.5C 458.569,64.5725 461.236,66.9059 464.5,68.5C 466.43,72.1002 469.097,75.1002 472.5,77.5C 495.333,108.175 501.833,142.175 492,179.5C 487.86,191.108 482.693,202.108 476.5,212.5C 475.833,212.5 475.5,212.833 475.5,213.5C 472.245,217.095 468.912,220.762 465.5,224.5C 464.5,224.833 463.833,225.5 463.5,226.5C 462.833,226.5 462.5,226.833 462.5,227.5C 461.833,227.5 461.5,227.833 461.5,228.5C 460.833,228.5 460.5,228.833 460.5,229.5C 459.833,229.5 459.5,229.833 459.5,230.5C 457.251,231.08 455.585,232.413 454.5,234.5C 453.833,234.5 453.5,234.833 453.5,235.5C 446.384,239.896 439.051,244.063 431.5,248C 389.814,264.457 351.147,259.29 315.5,232.5C 309.083,225.754 302.75,219.088 296.5,212.5C 293.083,205.995 289.416,199.662 285.5,193.5C 272.93,160.86 273.596,128.527 287.5,96.5C 292.574,88.6962 297.908,81.0295 303.5,73.5C 304.5,73.1667 305.167,72.5 305.5,71.5C 307.167,70.5 308.5,69.1667 309.5,67.5C 310.5,67.1667 311.167,66.5 311.5,65.5C 312.5,65.1667 313.167,64.5 313.5,63.5C 318.602,60.2451 323.602,56.7451 328.5,53C 370.942,30.0214 412.276,31.8548 452.5,58.5 Z"/></g>
<g><path style="opacity:1" fill="#fdfefc" d="M 373.5,55.5 C 419.491,52.8991 452.325,72.2324 472,113.5C 484.913,156.101 474.746,191.935 441.5,221C 412.241,240.442 381.241,243.776 348.5,231C 310.069,210.994 292.236,179.161 295,135.5C 303.568,91.4332 329.734,64.7665 373.5,55.5 Z"/></g>
<g><path style="opacity:1" fill="#fffdfb" d="M 107.5,57.5 C 139.389,54.4065 166.889,63.7398 190,85.5C 215.591,116.638 220.258,150.638 204,187.5C 200.408,194.354 196.075,200.687 191,206.5C 173.971,189.805 157.304,172.805 141,155.5C 140.251,154.365 140.417,153.365 141.5,152.5C 144.957,150.716 147.29,148.05 148.5,144.5C 141.588,143.083 134.588,142.25 127.5,142C 123.007,137.935 121.173,132.769 122,126.5C 121.625,124 120.792,121.667 119.5,119.5C 118.998,118.479 118.332,118.312 117.5,119C 115.316,121.016 113.316,123.183 111.5,125.5C 95.9849,109.819 80.6516,93.9853 65.5,78C 77.8545,67.6554 91.8545,60.8221 107.5,57.5 Z"/></g>
<g><path style="opacity:1" fill="#91cf3f" d="M 377.5,66.5 C 379.39,66.2965 380.89,66.9632 382,68.5C 392.007,84.1887 398.674,101.189 402,119.5C 402.831,125.859 402.664,132.193 401.5,138.5C 379.876,147.459 365.543,163.126 358.5,185.5C 356.363,159.294 359.696,133.794 368.5,109C 368.389,107.278 367.889,107.112 367,108.5C 354.165,138.174 347.831,169.174 348,201.5C 327.462,180.22 319.129,154.887 323,125.5C 328.488,108.34 338.322,94.1737 352.5,83C 360.556,76.9795 368.889,71.4795 377.5,66.5 Z"/></g>
<g><path style="opacity:1" fill="#ffa825" d="M 173.5,83.5 C 175.5,83.5 177.5,83.5 179.5,83.5C 178.312,95.6769 171.979,103.677 160.5,107.5C 157.253,107.752 155.92,106.252 156.5,103C 158.787,93.5469 164.454,87.0469 173.5,83.5 Z"/></g>
<g><path style="opacity:1" fill="#ffa825" d="M 147.5,86.5 C 149.888,87.2187 151.388,88.8854 152,91.5C 153.182,99.1471 152.182,106.48 149,113.5C 144.863,119.121 141.53,118.788 139,112.5C 137.238,102.174 140.072,93.5077 147.5,86.5 Z"/></g>
<g><path style="opacity:1" fill="#fffdfc" d="M 51.5,92.5 C 66.4376,107.938 81.6043,123.272 97,138.5C 96.6395,141.924 95.6395,145.258 94,148.5C 93.1608,153.921 93.4941,159.254 95,164.5C 97.9663,167.265 100.633,166.932 103,163.5C 105.261,159.05 106.928,154.383 108,149.5C 111.016,152.349 113.85,155.349 116.5,158.5C 111.295,160.018 106.795,162.684 103,166.5C 102.086,172.577 104.752,174.91 111,173.5C 116.772,173.119 122.272,171.953 127.5,170C 143.696,185.862 159.529,202.029 175,218.5C 175.617,219.449 175.451,220.282 174.5,221C 137.793,243.918 101.793,242.918 66.5,218C 31.8117,185.225 24.3117,147.058 44,103.5C 46.3301,99.6784 48.8301,96.0117 51.5,92.5 Z"/></g>
<g><path style="opacity:1" fill="#ffa825" d="M 132.5,102.5 C 133.496,102.414 134.329,102.748 135,103.5C 138.543,112.317 138.21,120.984 134,129.5C 129.916,135.138 126.583,134.804 124,128.5C 122.141,118.243 124.975,109.576 132.5,102.5 Z"/></g>
<g><path style="opacity:1" fill="#ffa825" d="M 159.5,110.5 C 182.918,109.37 184.252,113.87 163.5,124C 158.833,124.667 154.167,124.667 149.5,124C 147.016,121.716 146.849,119.216 149,116.5C 152.069,113.554 155.569,111.554 159.5,110.5 Z"/></g>
<g><path style="opacity:1" fill="#ffa825" d="M 145.5,126.5 C 149.846,126.334 154.179,126.501 158.5,127C 160.421,127.36 162.088,128.194 163.5,129.5C 155.861,139.216 145.861,142.716 133.5,140C 132.424,138.274 132.257,136.441 133,134.5C 136.378,130.406 140.545,127.739 145.5,126.5 Z"/></g>
<g><path style="opacity:1" fill="#91cf3f" d="M 411.5,142.5 C 429.568,141.967 447.235,144.3 464.5,149.5C 458.898,178.593 442.898,199.76 416.5,213C 398.662,218.03 381.162,217.197 364,210.5C 363.383,209.551 363.549,208.718 364.5,208C 386.128,192.383 408.795,178.383 432.5,166C 404.686,170.073 380.686,181.907 360.5,201.5C 363.317,169.511 380.317,149.844 411.5,142.5 Z"/></g>
<g><path style="opacity:1" fill="#ffa928" d="M 86.5,151.5 C 89.7144,152.528 91.5477,154.862 92,158.5C 93.4564,166.082 92.123,173.082 88,179.5C 84.8184,183.424 81.8184,183.424 79,179.5C 76.538,168.735 79.038,159.402 86.5,151.5 Z"/></g>
<g><path style="opacity:1" fill="#ffaa2b" d="M 98.5,175.5 C 103.844,175.334 109.177,175.501 114.5,176C 116.002,176.583 117.335,177.416 118.5,178.5C 110.33,188.354 100.163,191.687 88,188.5C 87.3333,186.5 87.3333,184.5 88,182.5C 91.154,179.488 94.654,177.155 98.5,175.5 Z"/></g>
<g><path style="opacity:1" fill="#ffab2f" d="M 78.5,186.5 C 82.9553,186.763 84.122,188.763 82,192.5C 77.5,197.667 73,202.833 68.5,208C 64.0644,210.645 62.231,209.478 63,204.5C 68.3763,198.628 73.543,192.628 78.5,186.5 Z"/></g>
<g><path style="opacity:0.004" fill="#fefffe" d="M 204.5,226.5 C 204.5,227.833 203.833,228.5 202.5,228.5C 202.5,227.167 203.167,226.5 204.5,226.5 Z"/></g>
<g><path style="opacity:0.004" fill="#fefffe" d="M 202.5,228.5 C 202.5,229.833 201.833,230.5 200.5,230.5C 200.5,229.167 201.167,228.5 202.5,228.5 Z"/></g>
</svg>
